<?xml version="1.0" standalone="no"?>
<!DOCTYPE svg PUBLIC "-//W3C//DTD SVG 20010904//EN"
 "http://www.w3.org/TR/2001/REC-SVG-20010904/DTD/svg10.dtd">
<svg version="1.0" xmlns="http://www.w3.org/2000/svg"
 width="569.000000pt" height="569.000000pt" viewBox="0 0 569.000000 569.000000"
 preserveAspectRatio="xMidYMid meet">
<metadata>
Created by potrace 1.14, written by Peter Selinger 2001-2017
</metadata>
<g transform="translate(0.000000,569.000000) scale(0.100000,-0.100000)"
fill="#000000" stroke="none">
<path d="M299 4193 c-1 -22 0 -473 0 -490 1 -10 106 -13 491 -13 l490 0 1 -22
c4 -142 -1 -1384 -6 -1418 -32 -225 -155 -345 -359 -353 -201 -9 -378 85 -533
282 l-19 24 -34 -44 c-19 -24 -37 -46 -40 -49 -3 -3 -43 -50 -89 -105 -212
-256 -195 -230 -177 -257 25 -38 141 -144 203 -185 205 -137 417 -198 683
-197 212 0 343 23 498 84 227 91 382 268 461 525 53 169 53 186 55 1248 l2
987 -813 0 c-767 0 -813 -1 -814 -17z"/>
<path d="M2710 2810 l0 -1401 743 4 c408 2 762 7 787 11 369 55 653 181 875
388 343 321 483 820 373 1328 -73 337 -240 586 -543 807 -64 47 -257 137 -365
171 -276 86 -321 90 -1157 91 l-713 2 0 -1401z m1398 858 c439 -67 691 -310
751 -723 9 -64 7 -257 -4 -315 -55 -301 -245 -528 -521 -624 -154 -54 -202
-59 -596 -62 -261 -3 -369 0 -374 8 -5 7 -9 1710 -5 1725 3 6 703 -2 749 -9z"/>
</g>
</svg>
